#!OML:ASF H:\MichaelJackson\Top Level 1\Subject 1\Session 1\male.ASF
:FULLY-SPECIFIED
:DEGREES
112
root -13.0217 16.6791 -32.9531 -9.64161 20.5915 -5.28352
lowerback 14.1989 -0.929003 -3.79261
upperback -1.24521 -1.79607 1.04846
thorax -9.18784 -0.642195 3.67023
lowerneck -2.40653 -4.1278 0.291106
upperneck -1.48077 -5.48379 5.01913
head 0.0841487 -2.73092 1.44727
rclavicle -4.93483e-014 1.11319e-014
rhumerus -60.4855 -15.1977 -44.5342
rradius 57.6851
rwrist -10.9103
rhand -15.4003 -23.5697
rfingers 7.12502
rthumb 10.7787 -53.2731
lclavicle -4.93483e-014 1.11319e-014
lhumerus -35.4885 -19.3822 88.1384
lradius 55.0715
lwrist 13.1032
lhand 6.39856 11.3276
lfingers 7.12502
lthumb 31.703 38.5926
rfemur -80.4901 -27.2483 51.6406
rtibia 47.2151
rfoot -10.3934 21.4095
rtoes -51.6503
lfemur -15.3864 6.5811 -16.4759
ltibia 42.0807
lfoot -16.1467 -16.9357
ltoes 52.2456
113
root -13.0449 16.6378 -32.9553 -9.5779 20.2517 -3.99445
lowerback 14.6033 -0.619644 -4.20794
upperback -0.938376 -1.56487 -0.0351429
thorax -9.12487 -0.546061 2.69171
lowerneck -2.61771 -4.26993 0.884213
upperneck -1.67386 -5.68013 5.53768
head 0.0633507 -2.83085 1.5058
rclavicle -2.1419e-014 -1.43125e-014
rhumerus -61.4249 -17.2386 -45.0412
rradius 58.6424
rwrist -11.5266
rhand -19.909 -24.738
rfingers 7.12502
rthumb 6.42766 -54.6205
lclavicle -2.1419e-014 -1.43125e-014
lhumerus -35.4867 -21.4471 87.5157
lradius 56.5378
lwrist 14.1208
lhand 6.63078 11.513
lfingers 7.12502
lthumb 31.9242 38.7341
rfemur -82.8224 -27.306 54.1654
rtibia 52.2207
rfoot -10.8427 13.2348
rtoes -49.7461
lfemur -15.0696 6.85578 -17.6891
ltibia 42.2927
lfoot -16.43 -16.5239
ltoes 51.722
114
root -13.064 16.5974 -32.9673 -9.71029 19.8523 -2.66416
lowerback 15.2675 -0.2479 -5.11679
upperback -0.610188 -1.31886 -0.711032
thorax -9.16291 -0.404693 2.43257
lowerneck -2.8142 -4.35749 1.24984
upperneck -1.84491 -5.80181 5.60075
head 0.0369931 -2.89407 1.46044
rclavicle -1.59525e-014 -2.38542e-015
rhumerus -61.7889 -18.8747 -45.4141
rradius 59.5643
rwrist -11.2084
rhand -25.3182 -27.2744
rfingers 7.12502
rthumb 1.20429 -57.2508
lclavicle -1.59525e-014 -2.38542e-015
lhumerus -35.262 -23.1972 87.4161
lradius 57.6405
lwrist 15.3682
lhand 7.16002 10.9264
lfingers 7.12502
lthumb 32.428 38.0455
rfemur -84.0755 -26.8762 54.7813
rtibia 57.1646
rfoot -9.62622 10.2532
rtoes -41.6048
lfemur -14.4666 7.22523 -18.8905
ltibia 42.3685
lfoot -16.6442 -16.2567
ltoes 51.4027
115
root -13.0843 16.5587 -32.9757 -9.99926 19.4695 -1.0688
lowerback 16.1172 0.19637 -6.57147
upperback -0.237849 -1.08721 -1.20776
thorax -9.24501 -0.240239 2.67456
lowerneck -2.86599 -4.37069 1.35409
upperneck -2.1022 -5.81016 5.53373
head -0.0387947 -2.90429 1.42446
rclavicle 3.86139e-014 3.02153e-014
rhumerus -61.8889 -20.2575 -45.698
rradius 60.4086
rwrist -9.83416
rhand -30.7872 -32.0275
rfingers 7.12502
rthumb -4.07766 -61.9682
lclavicle 3.86139e-014 3.02153e-014
lhumerus -35.3613 -24.2524 87.5589
lradius 58.9946
lwrist 16.2249
lhand 8.04052 11.6025
lfingers 7.12502
lthumb 33.2656 38.5463
rfemur -84.5586 -26.1553 53.3924
rtibia 62.76
rfoot -10.3209 9.96523
rtoes -27.0496
lfemur -13.5719 7.89484 -20.2758
ltibia 42.4519
lfoot -16.9162 -16.2445
ltoes 51.4506
116
root -13.0935 16.5028 -32.9556 -10.3586 19.2459 0.101087
lowerback 16.8405 0.51291 -7.62593
upperback 0.103665 -0.948466 -1.5751
thorax -9.28528 -0.138808 2.84452
lowerneck -2.62153 -4.35693 1.44753
upperneck -2.62327 -5.76051 5.38184
head -0.247919 -2.89631 1.37643
rclavicle 5.91384e-014 -4.77083e-014
rhumerus -61.9875 -20.9593 -46.4696
rradius 61.8764
rwrist -7.52129
rhand -29.8952 -35.2807
rfingers 7.12502
rthumb -3.21621 -65.2362
lclavicle 5.91384e-014 -4.77083e-014
lhumerus -35.4842 -25.1772 87.732
lradius 60.2163
lwrist 17.1315
lhand 8.85365 11.1158
lfingers 7.12502
lthumb 34.0383 37.891
rfemur -88.3419 -25.6742 57.6901
rtibia 67.3835
rfoot -12.3746 16.2432
rtoes -35.361
lfemur -12.6794 8.69878 -21.2148
ltibia 42.6065
lfoot -17.1814 -16.4195
ltoes 51.7098
117
root -13.1245 16.4628 -32.9824 -10.6069 19.015 0.873922
lowerback 17.4171 0.719356 -8.18696
upperback 0.368784 -0.847545 -1.80054
thorax -9.32541 -0.0744442 2.89501
lowerneck -2.54304 -4.32839 1.52237
upperneck -3.02724 -5.70621 5.02841
head -0.398771 -2.87971 1.26333
rclavicle 6.65929e-014 0
rhumerus -61.9018 -21.6332 -47.244
rradius 63.0805
rwrist -4.40117
rhand -29.1167 -38.4407
rfingers 7.12502
rthumb -2.46441 -68.4062
lclavicle 6.65929e-014 0
lhumerus -35.5677 -25.9113 87.9773
lradius 61.2116
lwrist 17.9522
lhand 9.94696 11.7298
lfingers 7.12502
lthumb 35.076 38.2681
rfemur -84.326 -23.8885 48.6918
rtibia 73.0838
rfoot -8.10456 19.191
rtoes -41.4005
lfemur -12.3558 9.84161 -21.6941
ltibia 42.8658
lfoot -17.1411 -16.9014
ltoes 51.4452
118
root -13.135 16.4286 -32.9935 -10.4642 19.5871 1.55367
lowerback 17.7303 0.600112 -8.69725
upperback 0.520563 -1.14007 -1.90862
thorax -9.295 -0.197607 3.14026
lowerneck -2.52403 -4.27727 1.40051
upperneck -3.36186 -5.62694 4.62542
head -0.514262 -2.84503 1.16545
rclavicle -3.11595e-014 7.95139e-016
rhumerus -61.234 -21.5114 -49.1769
rradius 63.898
rwrist -6.1866
rhand -30.3206 -40.303
rfingers 7.12502
rthumb -3.62709 -70.2519
lclavicle -3.11595e-014 7.95139e-016
lhumerus -35.5073 -26.3146 88.4305
lradius 61.777
lwrist 18.735
lhand 11.0194 12.1171
lfingers 7.12502
lthumb 36.0926 38.4108
rfemur -84.3243 -23.1513 45.8561
rtibia 77.6224
rfoot -7.07445 23.7718
rtoes -41.5342
lfemur -12.544 10.3185 -22.3762
ltibia 43.3784
lfoot -17.1524 -17.5406
ltoes 51.8447
119
root -13.1605 16.4064 -32.9952 -10.4649 20.0545 1.06913
lowerback 17.8027 0.325159 -8.12524
upperback 0.596441 -1.38053 -1.81782
thorax -9.23111 -0.339552 2.97888
lowerneck -2.86047 -4.26555 1.3949
upperneck -3.2537 -5.63087 4.31112
head -0.434559 -2.83974 1.05855
rclavicle 2.69105e-014 -2.22639e-014
rhumerus -61.2103 -22.4419 -49.292
rradius 64.9004
rwrist -0.0455291
rhand -28.7507 -44.2462
rfingers 7.12502
rthumb -2.11098 -74.2155
lclavicle 2.69105e-014 -2.22639e-014
lhumerus -35.446 -26.8296 88.7468
lradius 62.0006
lwrist 19.4325
lhand 11.7601 11.517
lfingers 7.12502
lthumb 36.7938 37.6345
rfemur -84.1161 -22.1358 43.9253
rtibia 81.7952
rfoot -3.16121 28.5062
rtoes -41.2048
lfemur -13.1444 10.741 -21.7898
ltibia 44.0906
lfoot -17.1162 -18.3563
ltoes 52.4554
120
root -13.2023 16.3904 -32.9871 -10.7181 20.305 -0.557046
lowerback 17.6253 -0.00904339 -6.72128
upperback 0.583431 -1.48419 -1.40113
thorax -9.15253 -0.444131 2.66474
lowerneck -3.0626 -4.26456 1.30444
upperneck -3.04992 -5.64283 4.22001
head -0.339064 -2.83848 1.03654
rclavicle -6.31141e-015 -7.95139e-015
rhumerus -60.6675 -21.8944 -51.8891
rradius 65.7081
rwrist -5.29991
rhand -48.5539 -49.1282
rfingers 7.12502
rthumb -21.2006 -77.9889
lclavicle -6.31141e-015 -7.95139e-015
lhumerus -35.4762 -27.2472 89.135
lradius 61.9856
lwrist 20.3367
lhand 13.1584 11.9171
lfingers 7.12502
lthumb 38.1155 37.6848
rfemur -83.3706 -20.7466 43.154
rtibia 85.0818
rfoot 2.66524 32.8685
rtoes -40.7906
lfemur -14.0214 11.2067 -19.9243
ltibia 44.9339
lfoot -17.0329 -19.0427
ltoes 52.9304
121
root -13.2331 16.3622 -32.9758 -10.318 21.2066 -1.25605
lowerback 17.2029 -0.439099 -6.04951
upperback 0.462026 -1.88226 -1.29774
thorax -9.02765 -0.663872 2.48707
lowerneck -3.29793 -4.31508 1.27863
upperneck -2.80496 -5.72601 4.19267
head -0.224665 -2.87252 1.02166
rclavicle 2.61153e-014 1.74931e-014
rhumerus -60.4749 -21.8254 -53.5429
rradius 66.7718
rwrist -6.74498
rhand -59.1796 -56.9335
rfingers 7.12502
rthumb -31.3705 -84.2637
lclavicle 2.61153e-014 1.74931e-014
lhumerus -35.6664 -27.3639 89.5407
lradius 61.9949
lwrist 20.8067
lhand 14.8085 13.0138
lfingers 7.12502
lthumb 39.6714 38.3382
rfemur -83.3036 -19.842 41.504
rtibia 88.2586
rfoot 11.0416 36.407
rtoes -35.5561
lfemur -15.2904 11.2162 -19.3381
ltibia 45.7338
lfoot -17.2202 -19.3585
ltoes 52.6722
122
root -13.2715 16.3493 -32.9743 -9.84933 22.4194 -1.96435
lowerback 16.769 -0.952705 -5.3229
upperback 0.312715 -2.39568 -1.28349
thorax -8.93118 -0.942386 2.20459
lowerneck -3.35271 -4.40706 1.31794
upperneck -2.72146 -5.85314 4.34236
head -0.184813 -2.93411 1.05734
rclavicle -1.38652e-014 -3.97569e-015
rhumerus -60.6339 -22.0225 -54.8633
rradius 68.2562
rwrist -6.72738
rhand -59.8838 -58.2235
rfingers 7.12502
rthumb -32.0412 -85.4212
lclavicle -1.38652e-014 -3.97569e-015
lhumerus -35.3958 -27.9573 89.879
lradius 61.5178
lwrist 21.6106
lhand 16.5863 13.9106
lfingers 7.12502
lthumb 41.3427 38.7171
rfemur -83.2425 -19.2953 39.942
rtibia 91.2425
rfoot 24.2196 35.7061
rtoes -19.172
lfemur -16.6696 10.9692 -18.8276
ltibia 46.3771
lfoot -21.0087 -19.3475
ltoes 48.7836
123
root -13.3072 16.3489 -32.9818 -9.35262 23.7253 -2.16074
lowerback 16.4443 -1.42398 -4.91141
upperback 0.201395 -2.94405 -1.49361
thorax -8.86149 -1.22899 1.86435
lowerneck -3.12107 -4.50785 1.35515
upperneck -2.87504 -5.9712 4.73777
head -0.25633 -2.99938 1.18077
rclavicle -2.36554e-014 -1.66979e-014
rhumerus -61.0434 -22.2932 -56.1663
rradius 70.0797
rwrist -6.11973
rhand -58.9884 -59.1812
rfingers 7.12502
rthumb -31.1883 -86.5466
lclavicle -2.36554e-014 -1.66979e-014
lhumerus -35.1064 -28.7736 90.1845
lradius 60.9962
lwrist 22.3674
lhand 18.6715 15.6925
lfingers 7.12502
lthumb 43.2956 39.8332
rfemur -83.0674 -19.1965 38.083
rtibia 94.2207
rfoot 27.6389 38.9068
rtoes -19.5891
lfemur -17.7276 10.6748 -18.8754
ltibia 46.6874
lfoot -22.7659 -19.1664
ltoes 46.6699
124
root -13.3553 16.3391 -32.9679 -8.86955 25.1672 -2.20934
lowerback 16.0196 -1.87086 -4.90116
upperback 0.157914 -3.52746 -1.71095
thorax -8.64769 -1.52075 1.74066
lowerneck -2.88892 -4.61518 1.34469
upperneck -3.0473 -6.09212 5.2887
head -0.327137 -3.06708 1.36198
rclavicle 4.78077e-014 9.54166e-015
rhumerus -61.6227 -22.6198 -57.4014
rradius 72.0642
rwrist -4.68647
rhand -56.258 -58.5618
rfingers 7.12502
rthumb -28.5828 -86.3965
lclavicle 4.78077e-014 9.54166e-015
lhumerus -34.8091 -29.8103 90.4919
lradius 60.5295
lwrist 22.9585
lhand 20.9056 18.2198
lfingers 7.12502
lthumb 45.3777 41.569
rfemur -82.7763 -19.4139 36.372
rtibia 97.3792
rfoot 25.9714 42.0608
rtoes -24.7259
lfemur -18.5403 10.3464 -18.9568
ltibia 46.7917
lfoot -22.7563 -19.0643
ltoes 45.9185
